<svg xmlns="http://www.w3.org/2000/svg" viewBox="0 0 580 218" width="580" height="218">
	<defs>
	</defs>
	<g id="g10">
		<g id="g12">
			<path id="path14" style="fill: #808080" d="M161.21,75l-33.71,-11.25v-48.75l33.75,10z" />
			<path id="path16" style="fill: #808080" d="M170,25l33.75,-10l-0.12,48.72l-33.63,11.28z" />
			<path id="path18" style="fill: #808080" d="M196.88,9.72l-31.46,-9.72l-31.04,9.72l31.09,8.33z" />
			<path id="path20" style="fill: #808080" d="M246.21,75l-33.71,-11.25v-48.75l33.75,10z" />
			<path id="path22" style="fill: #808080" d="M255,25l33.75,-10l-0.12,48.72l-33.63,11.28z" />
			<path id="path24" style="fill: #808080" d="M281.88,9.72l-31.46,-9.72l-31.04,9.72l31.09,8.33z" />
			<path id="path26" style="fill: #808080" d="M33.75,96.25l-33.75,-10v48.75l33.71,11.25z" />
			<path id="path28" style="fill: #808080" d="M42.5,96.25l33.75,-10l-0.12,48.72l-33.63,11.28z" />
			<path id="path30" style="fill: #808080" d="M69.38,80.97l-31.46,-9.72l-31.04,9.72l31.09,8.33z" />
			<path id="path32" style="fill: #808080" d="M118.71,146.25l-33.71,-11.25v-48.75l33.75,10z" />
			<path id="path34" style="fill: #808080" d="M127.5,96.25l33.75,-10l-0.12,48.72l-33.63,11.28z" />
			<path id="path36" style="fill: #808080" d="M154.38,80.97l-31.46,-9.72l-31.04,9.72l31.09,8.33z" />
			<path id="path38" style="fill: #808080" d="M76.21,217.5l-33.71,-11.25v-48.75l33.75,10z" />
			<path id="path40" style="fill: #808080" d="M85,167.5l33.75,-10l-0.12,48.72l-33.63,11.28z" />
			<path id="path42" style="fill: #808080" d="M111.88,152.22l-31.46,-9.72l-31.04,9.72l31.09,8.33z" />
			<path id="path44" style="fill: #100f0d" d="M225.49,174.41l-2.48,0.01c-0.91,0 -2.07,0.61 -2.35,1.61l-7.52,26.51l-7.44,-26.45c-0.22,-0.83 -1,-1.67 -2.07,-1.67h-2.94c-1.06,0 -1.83,0.85 -2.04,1.69l-6.92,26.17l-7.15,-26.25c-0.28,-0.96 -1.47,-1.6 -2.4,-1.6l-3.57,-0.01c-0.76,0 -1.47,0.33 -1.85,0.85c-0.26,0.36 -0.33,0.76 -0.21,1.12l11.05,39.12c0.24,0.82 0.96,1.65 2,1.65h3.55c0.96,0 1.8,-0.7 2.04,-1.69l6.8,-26.06l7.4,26.09c0.22,0.8 0.94,1.66 1.99,1.66h3.49c0.97,0 1.79,-0.67 2.03,-1.66l10.64,-39.09c0.13,-0.38 0.05,-0.79 -0.2,-1.15c-0.37,-0.52 -1.07,-0.84 -1.83,-0.84z" />
			<path id="path46" style="fill: #100f0d" d="M256.17,191.02h-18.75c0.43,-5.26 3.85,-10.72 9.63,-10.93c6.16,0.2 8.98,5.53 9.11,10.93zM247.05,174.13c-12.66,0 -18.43,11.2 -18.43,21.6c0,12.98 7.17,21.37 18.27,21.37c7.94,0 14,-4.01 16.61,-11.02c0.14,-0.4 0.1,-0.84 -0.12,-1.23c-0.27,-0.47 -0.77,-0.83 -1.37,-0.96l-3.51,-0.67c-0.94,-0.15 -2.02,0.41 -2.38,1.22c-1.71,3.9 -4.82,6.11 -8.73,6.22c-3.76,-0.12 -7.21,-2.35 -8.79,-5.69c-1.28,-2.72 -1.47,-5.41 -1.5,-8.14l25.45,-0.01c0.53,0 1.09,-0.23 1.48,-0.63c0.33,-0.33 0.5,-0.73 0.5,-1.14c-0.06,-10.11 -4.68,-20.92 -17.47,-20.92z" />
			<path id="path48" style="fill: #100f0d" d="M295.83,195.79c0,2.4 -0.43,14.35 -8.93,14.66c-2.85,-0.11 -5.73,-1.78 -7.33,-4.26c-1.18,-1.87 -1.87,-4.46 -2.05,-7.66v-7.04c0.14,-5.39 3.93,-11.31 9.36,-11.53c8.52,0.34 8.96,13.24 8.96,15.83zM288.23,173.76h-0.67c-4.2,0 -7.51,1.75 -10.04,5.33l0,-16.49c0,-0.93 -0.96,-1.77 -2.01,-1.77h-3.66c-0.96,0 -2.03,0.76 -2.03,1.77v51.48c0,0.94 0.96,1.78 2.01,1.78l1.07,-0.01c1.01,0 1.74,-0.82 1.98,-1.58l1.14,-3.63c2.66,3.78 6.67,6 10.95,6h0.66c11.29,0 16.35,-10.98 16.35,-21.87c0,-5.42 -1.34,-10.6 -3.67,-14.21c-2.69,-4.19 -7.32,-6.79 -12.09,-6.79z" />
			<path id="path50" style="fill: #100f0d" d="M344.06,194.63c-2.38,-1.71 -5.24,-2.28 -8.11,-2.85l-5.5,-1.02c-3.94,-0.65 -6.23,-1.71 -6.23,-5.19c0,-3.68 3.81,-5.08 7.05,-5.17c3.95,0.1 6.92,1.86 8.36,4.96c0.34,0.73 1.1,1.22 1.89,1.22c0.13,0 0.27,-0.02 0.4,-0.04l3.43,-0.76c0.56,-0.12 1.08,-0.51 1.36,-1.01c0.22,-0.4 0.27,-0.83 0.14,-1.21c-2.1,-6.11 -7.43,-9.34 -15.49,-9.34c-7.28,0.02 -15.07,3.25 -15.07,12.3c0,6.18 3.88,10.11 11.56,11.67l6.15,1.17c3.38,0.65 6.83,1.8 6.83,5.42c0,5.37 -6.25,5.92 -8.14,5.96c-4.24,-0.09 -9.04,-1.98 -10.2,-5.98c-0.23,-0.88 -1.34,-1.5 -2.31,-1.3l-3.59,0.74c-0.54,0.11 -1.03,0.46 -1.32,0.94c-0.24,0.4 -0.31,0.84 -0.2,1.24c1.85,6.64 8.26,10.65 17.15,10.71l0.2,0c7.94,0 16.42,-3.4 16.42,-12.93c0,-3.88 -1.75,-7.35 -4.79,-9.52z" />
			<path id="path52" style="fill: #100f0d" d="M380.34,191.05h-18.75c0.43,-5.27 3.85,-10.72 9.63,-10.92c6.16,0.2 8.98,5.52 9.12,10.92zM371.21,174.16c-12.67,0 -18.44,11.2 -18.44,21.6c0,12.98 7.17,21.37 18.27,21.37c7.94,0 14,-4.01 16.61,-11.02c0.14,-0.4 0.1,-0.84 -0.12,-1.23c-0.27,-0.47 -0.77,-0.83 -1.37,-0.96l-3.52,-0.67c-0.82,-0.13 -1.97,0.29 -2.38,1.22c-1.71,3.89 -4.82,6.1 -8.73,6.22c-3.76,-0.12 -7.21,-2.35 -8.79,-5.69c-1.29,-2.72 -1.48,-5.41 -1.5,-8.15l25.45,-0.01c0.53,0 1.08,-0.23 1.47,-0.63c0.33,-0.33 0.5,-0.74 0.5,-1.15c-0.06,-10.11 -4.68,-20.92 -17.47,-20.92z" />
			<path id="path54" style="fill: #100f0d" d="M412.71,174.64c-0.5,-0.05 -0.97,-0.08 -1.44,-0.08c-4.27,0 -7.74,2.32 -10.15,6.76l0.01,-3.89c0,-0.94 -0.94,-1.77 -2.01,-1.77h-3.18c-1.04,0 -1.96,0.83 -1.97,1.78l0,37.74c0,0.95 0.92,1.78 1.97,1.78l3.71,0c0.96,0 2.05,-0.76 2.06,-1.78l0,-19.03c0,-3.14 0.29,-5.5 1.79,-8.3c2.14,-3.98 5.13,-5.94 9.14,-5.97c1,-0.01 1.89,-0.88 1.89,-1.88v-3.53c0,-0.92 -0.8,-1.73 -1.82,-1.85z" />
			<path id="path56" style="fill: #100f0d" d="M451.65,173.9l-2.93,0c-0.92,0 -2.09,0.66 -2.38,1.63l-9.49,29.84l-9.69,-29.81c-0.29,-0.99 -1.46,-1.65 -2.39,-1.65l-4.18,0c-0.77,0 -1.51,0.34 -1.89,0.87c-0.25,0.35 -0.32,0.76 -0.2,1.13l13.27,39.36c0.25,0.78 0.93,1.69 2,1.69h5.06c0.93,0 1.69,-0.63 2.04,-1.69l12.87,-39.35c0.13,-0.37 0.06,-0.78 -0.19,-1.13c-0.38,-0.53 -1.12,-0.88 -1.89,-0.88z" />
			<path id="path58" style="fill: #100f0d" d="M461.27,158.77c-2.7,0 -4.89,2.2 -4.89,4.91c0,2.71 2.19,4.9 4.89,4.9c2.7,0 4.89,-2.2 4.89,-4.9c0,-2.71 -2.2,-4.91 -4.89,-4.91z" />
			<path id="path60" style="fill: #100f0d" d="M463.29,173.66l-4.02,0c-1.09,0 -2.09,0.88 -2.09,1.85l-0.02,40.07c0,0.48 0.25,0.97 0.68,1.32c0.4,0.32 0.9,0.51 1.41,0.51l4.05,0.01h0c1.11,-0.01 2.08,-0.87 2.08,-1.84v-40.08c0,-0.98 -0.98,-1.85 -2.1,-1.85z" />
			<path id="path62" style="fill: #100f0d" d="M500.82,200.83l-3.35,0.01c-0.94,0 -1.72,0.56 -2.07,1.54c-1.23,5.29 -4,8.02 -8.21,8.15c-8.19,-0.24 -8.83,-11.67 -8.83,-15.16c0,-6.97 2.41,-14.49 9.15,-14.69c4.07,0.13 7.03,3.04 7.91,7.79c0.17,0.97 0.91,1.7 1.93,1.83l3.59,0.04c1.07,-0.12 1.91,-0.93 1.91,-1.93c-1.27,-8.59 -7.22,-14.14 -15.18,-14.14l-0.27,0.01l-0.31,-0.01c-11.57,0 -16.75,10.8 -16.75,21.49c0,9.81 4.37,21.26 16.68,21.26h0.59c7.75,0 13.61,-5.44 15.29,-14.25c0.04,-0.42 -0.11,-0.84 -0.4,-1.18c-0.38,-0.44 -1,-0.73 -1.67,-0.76z" />
			<path id="path64" style="fill: #100f0d" d="M533.94,191.05h-18.75c0.43,-5.27 3.85,-10.72 9.64,-10.92c6.16,0.2 8.98,5.52 9.12,10.92zM524.81,174.16c-12.66,0 -18.43,11.2 -18.43,21.6c0,12.98 7.17,21.37 18.27,21.37c7.94,0 13.99,-4.01 16.61,-11.02c0.14,-0.4 0.09,-0.84 -0.13,-1.23c-0.27,-0.48 -0.76,-0.83 -1.37,-0.96l-3.51,-0.67c-0.83,-0.13 -1.97,0.29 -2.38,1.22c-1.71,3.89 -4.83,6.1 -8.73,6.22c-3.76,-0.12 -7.21,-2.35 -8.78,-5.69c-1.29,-2.72 -1.48,-5.41 -1.5,-8.15l25.45,0c0.53,0 1.09,-0.24 1.48,-0.63c0.33,-0.33 0.5,-0.74 0.49,-1.14c-0.06,-10.11 -4.68,-20.92 -17.47,-20.92z" />
			<path id="path66" style="fill: #100f0d" d="M574.16,194.63c-2.38,-1.71 -5.25,-2.28 -8.11,-2.85l-5.5,-1.02c-3.94,-0.65 -6.22,-1.71 -6.22,-5.19c0,-4.75 5.89,-5.14 7.04,-5.17c3.95,0.1 6.92,1.86 8.36,4.96c0.35,0.73 1.11,1.22 1.9,1.22c0.14,0 0.27,-0.02 0.4,-0.04l3.43,-0.76c0.56,-0.12 1.08,-0.51 1.36,-1.01c0.22,-0.4 0.27,-0.83 0.14,-1.21c-2.1,-6.11 -7.43,-9.34 -15.49,-9.34c-7.28,0.02 -15.06,3.25 -15.06,12.3c0,6.18 3.88,10.11 11.55,11.67l6.15,1.17c3.38,0.65 6.83,1.8 6.83,5.42c0,5.37 -6.25,5.92 -8.14,5.96c-3.93,-0.08 -8.96,-1.71 -10.2,-5.98c-0.23,-0.88 -1.33,-1.51 -2.32,-1.31l-3.58,0.74c-0.54,0.12 -1.04,0.47 -1.33,0.94c-0.24,0.4 -0.31,0.83 -0.2,1.24c1.85,6.64 8.26,10.65 17.14,10.71l0.2,0c7.94,0 16.42,-3.4 16.42,-12.93c0,-3.88 -1.75,-7.35 -4.79,-9.52z" />
			<path id="path68" style="fill: #100f0d" d="M410.89,96.5v-9.1c0,-1.38 1.05,-2.31 2.31,-2.31l40.77,0c1.3,0 2.35,0.95 2.35,2.3v7.8c-0.01,1.31 -1.12,3.01 -3.07,5.73l-21.12,30.15c7.83,-0.19 16.13,0.99 23.25,4.99c1.61,0.9 2.04,2.24 2.17,3.55v9.71c0,1.34 -1.46,2.89 -3,2.08c-12.55,-6.57 -29.2,-7.29 -43.08,0.08c-1.42,0.76 -2.9,-0.77 -2.9,-2.11v-9.23c0,-1.47 0.03,-4 1.52,-6.25l24.47,-35.1l-21.3,0c-1.3,0 -2.35,-0.93 -2.36,-2.29z" />
			<path id="path70" style="fill: #100f0d" d="M262.18,153.32h-12.41c-1.18,-0.08 -2.12,-0.97 -2.22,-2.1l0.01,-63.66c0,-1.27 1.07,-2.29 2.39,-2.29l11.55,-0.01c1.21,0.07 2.18,0.98 2.26,2.14v8.32h0.23c3.01,-8.04 8.68,-11.79 16.32,-11.79c7.76,0 12.62,3.75 16.09,11.79c3.01,-8.04 9.84,-11.79 17.14,-11.79c5.21,0 10.88,2.14 14.35,6.96c3.94,5.36 3.13,13.13 3.13,19.96l-0.01,40.17c0,1.27 -1.07,2.29 -2.39,2.29h-12.39c-1.25,-0.08 -2.23,-1.07 -2.23,-2.29v-33.75c0,-2.68 0.23,-9.38 -0.35,-11.92c-0.93,-4.29 -3.71,-5.49 -7.29,-5.49c-3.01,0 -6.14,2.01 -7.42,5.22c-1.27,3.22 -1.15,8.58 -1.15,12.19v33.75c0,1.27 -1.07,2.29 -2.39,2.29h-12.39c-1.24,-0.08 -2.23,-1.07 -2.23,-2.29l-0.02,-33.75c0,-7.1 1.16,-17.54 -7.64,-17.54c-8.92,0 -8.57,10.18 -8.57,17.54l-0.01,33.75c0,1.27 -1.07,2.29 -2.39,2.29z" />
			<path id="path72" style="fill: #100f0d" d="M499.65,103.08c1.62,5.09 1.85,11.52 1.85,16.88c0,8.17 -0.46,21.57 -10.07,21.57c-9.73,0 -9.62,-16.61 -9.62,-24.38c0,-7.77 0.58,-20.23 9.73,-20.23c3.94,0 6.72,1.74 8.11,6.16zM463.52,119.15c0,19.69 9.84,35.5 27.91,35.5c17.36,0 28.37,-15.41 28.37,-34.83c0,-20.09 -9.96,-35.89 -28.37,-35.89c-17.95,0 -27.91,15.4 -27.91,35.23z" />
			<path id="path74" style="fill: #100f0d" d="M543.67,153.32h-12.36c-1.25,-0.08 -2.23,-1.07 -2.23,-2.29l-0.02,-63.69c0.1,-1.16 1.13,-2.07 2.38,-2.07l11.51,-0.01c1.09,0.06 1.98,0.8 2.2,1.78v9.74h0.24c3.47,-8.71 8.34,-12.86 16.9,-12.86c5.56,0 11,2 14.48,7.5c3.24,5.09 3.24,13.66 3.24,19.82v40.06c-0.14,1.13 -1.14,2.01 -2.37,2.01h-12.44c-1.15,-0.07 -2.07,-0.92 -2.21,-2.01v-34.57c0,-6.97 0.81,-17.15 -7.76,-17.15c-3.01,0 -5.78,2.01 -7.17,5.09c-1.74,3.88 -1.97,7.77 -1.97,12.06v34.28c-0.02,1.27 -1.09,2.29 -2.41,2.29z" />
			<path id="path76" style="fill: #100f0d" d="M390.9,153.16c-0.82,0.73 -2,0.78 -2.93,0.29c-4.12,-3.42 -4.86,-5.01 -7.11,-8.27c-6.81,6.94 -11.63,9.02 -20.45,9.02c-10.45,0 -18.57,-6.44 -18.57,-19.33c0,-10.07 5.45,-16.91 13.23,-20.27c6.73,-2.95 16.13,-3.49 23.32,-4.3v-1.61c0,-2.95 0.23,-6.44 -1.51,-8.99c-1.5,-2.28 -4.4,-3.22 -6.96,-3.22c-4.73,0 -8.94,2.43 -9.97,7.45c-0.21,1.12 -1.03,2.22 -2.15,2.28l-12.02,-1.3c-1.02,-0.23 -2.14,-1.04 -1.85,-2.59c2.76,-14.59 15.93,-18.99 27.74,-18.99c6.03,0 13.92,1.61 18.68,6.17c6.03,5.64 5.45,13.16 5.45,21.35v19.32c0,5.81 2.42,8.36 4.69,11.5c0.79,1.13 0.96,2.47 -0.05,3.3c-2.53,2.12 -7.03,6.03 -9.51,8.24c0,0 -0.03,-0.03 -0.03,-0.03zM378.4,120.23c-8.97,0 -18.45,1.92 -18.45,12.48c0,5.37 2.78,9 7.54,9c3.48,0 6.62,-2.15 8.59,-5.64c2.44,-4.29 2.32,-8.32 2.32,-13.16c0,0 0,-2.68 0,-2.68z" />
			<path id="path78" style="fill: #100f0d" d="M228.31,153.16c-0.82,0.73 -2.01,0.78 -2.93,0.29c-4.12,-3.42 -4.86,-5.01 -7.11,-8.27c-6.81,6.94 -11.63,9.02 -20.45,9.02c-10.44,0 -18.56,-6.44 -18.56,-19.33c0,-10.07 5.46,-16.91 13.23,-20.27c6.73,-2.95 16.13,-3.49 23.32,-4.3v-1.61c0,-2.95 0.23,-6.44 -1.51,-8.99c-1.51,-2.28 -4.41,-3.22 -6.96,-3.22c-4.73,0 -8.94,2.43 -9.97,7.45c-0.22,1.12 -1.03,2.22 -2.15,2.28l-12.02,-1.3c-1.01,-0.23 -2.14,-1.04 -1.85,-2.59c2.76,-14.59 15.93,-18.99 27.74,-18.99c6.04,0 13.93,1.61 18.68,6.17c6.03,5.64 5.45,13.16 5.45,21.35v19.32c0,5.81 2.42,8.36 4.68,11.5c0.79,1.13 0.97,2.47 -0.04,3.3c-2.53,2.12 -7.04,6.03 -9.51,8.24zM215.8,120.23c-8.97,0 -18.45,1.92 -18.45,12.48c0,5.37 2.78,9 7.54,9c3.48,0 6.61,-2.15 8.59,-5.64c2.43,-4.29 2.32,-8.32 2.32,-13.16c0,0 0,-2.68 0,-2.68z" />
		</g>
	</g>
</svg>