<svg xmlns="http://www.w3.org/2000/svg" viewBox="0 0 256 215" width="256" height="215">
	<defs>
	</defs>
	<g id="Layer">
		<path id="Layer" style="fill: #3e3e3e" d="M147.49,84.73h22.87v23.37h11.56c5.34,0 10.83,-0.95 15.89,-2.66c2.48,-0.84 5.27,-2.01 7.72,-3.49c-3.23,-4.21 -4.88,-9.54 -5.36,-14.78c-0.66,-7.13 0.78,-16.42 5.61,-22l2.4,-2.78l2.86,2.3c7.21,5.79 13.28,13.89 14.35,23.12c8.68,-2.55 18.88,-1.95 26.53,2.47l3.14,1.81l-1.65,3.23c-6.47,12.63 -20,16.55 -33.24,15.85c-19.8,49.31 -62.9,72.65 -115.16,72.65c-27,0 -51.77,-10.09 -65.88,-34.05l-0.23,-0.39l-2.05,-4.18c-4.77,-10.54 -6.35,-22.1 -5.28,-33.64l0.32,-3.46h19.55v-23.37h22.87v-22.87h45.73v-22.87h27.44z" />
		<path id="Layer" style="fill: #919191" d="M221.57,93.38c1.53,-11.92 -7.38,-21.27 -12.91,-25.72c-6.37,7.37 -7.36,26.68 2.63,34.81c-5.58,4.96 -17.34,9.45 -29.38,9.45h-146.55c-1.17,12.57 1.04,24.14 6.07,34.05l1.67,3.05c1.06,1.79 2.21,3.52 3.45,5.18v0c6.02,0.39 11.58,0.52 16.66,0.41v0c9.99,-0.22 18.14,-1.4 24.31,-3.54c0.92,-0.32 1.92,0.17 2.24,1.09c0.32,0.92 -0.17,1.92 -1.09,2.24c-0.82,0.28 -1.68,0.55 -2.56,0.8v0c-4.86,1.39 -10.08,2.32 -16.81,2.74c0.4,0.01 -0.42,0.06 -0.42,0.06c-0.23,0.01 -0.52,0.05 -0.75,0.06c-2.65,0.15 -5.51,0.18 -8.43,0.18c-3.2,0 -6.34,-0.06 -9.86,-0.24l-0.09,0.06c12.21,13.72 31.3,21.95 55.23,21.95c50.65,0 93.61,-22.45 112.63,-72.86c13.5,1.38 26.47,-2.06 32.37,-13.57c-9.4,-5.42 -21.48,-3.69 -28.44,-0.2z" />
		<path id="Layer" style="fill: #808080" d="M221.57,93.38c1.53,-11.92 -7.38,-21.27 -12.91,-25.72c-6.37,7.37 -7.36,26.68 2.63,34.81c-5.58,4.96 -17.34,9.45 -29.38,9.45h-137.87c-0.6,19.25 6.54,33.86 19.18,42.69v0c9.99,-0.22 18.14,-1.4 24.31,-3.54c0.92,-0.32 1.92,0.17 2.24,1.09c0.32,0.92 -0.17,1.92 -1.09,2.24c-0.82,0.28 -1.68,0.55 -2.56,0.8v0c-4.86,1.39 -10.53,2.44 -17.25,2.86l-0.16,-0.16c17.24,8.84 42.23,8.81 70.89,-2.2c32.13,-12.34 62.03,-35.86 82.89,-62.76c-0.31,0.14 -0.62,0.29 -0.92,0.44z" />
		<path id="Layer" style="fill: #808080" d="M35.64,127.19c0.91,6.73 2.88,13.03 5.8,18.78l1.67,3.05c1.06,1.79 2.21,3.52 3.46,5.18c6.03,0.39 11.58,0.52 16.66,0.41c9.99,-0.22 18.14,-1.4 24.31,-3.54c0.92,-0.32 1.92,0.17 2.24,1.09c0.32,0.92 -0.17,1.92 -1.09,2.24c-0.82,0.28 -1.68,0.55 -2.56,0.8v0c-4.86,1.39 -10.5,2.38 -17.22,2.8c-0.23,0.01 -0.63,0.02 -0.87,0.03c-2.65,0.15 -5.48,0.24 -8.4,0.24c-3.2,0 -6.46,-0.06 -9.98,-0.24c12.21,13.72 31.42,21.98 55.35,21.98c43.36,0 81.08,-16.46 102.98,-52.82z" />
		<path id="Layer" style="fill: #808080" d="M45.37,127.19c2.59,11.82 8.82,21.1 17.86,27.42c9.99,-0.22 18.14,-1.4 24.31,-3.54c0.92,-0.32 1.92,0.17 2.24,1.09c0.32,0.92 -0.17,1.92 -1.09,2.24c-0.82,0.28 -1.68,0.55 -2.56,0.8v0c-4.86,1.39 -10.61,2.38 -17.34,2.8c17.24,8.84 42.16,8.71 70.81,-2.29c17.33,-6.66 34.02,-16.57 48.98,-28.51z" />
		<path id="Layer" style="fill: #a1a1a1" d="M55.26,88.54h19.82v19.82h-19.82zM56.91,106.71h1.56v-16.52h-1.56zM59.85,106.71h1.63v-16.52h-1.63zM62.85,106.71h1.63v-16.52h-1.63zM65.86,106.71h1.63v-16.52h-1.63zM68.86,106.71h1.63v-16.52h-1.63zM71.86,106.71h1.56v-16.52h-1.56z" />
		<path id="Layer" style="fill: #a1a1a1" d="M78.13,65.68h19.82v19.82h-19.82zM79.78,83.84h1.56v-16.51h-1.56zM82.72,83.84h1.63v-16.51h-1.63zM85.72,83.84h1.63v-16.51h-1.63zM88.72,83.84h1.63v-16.51h-1.63zM91.73,83.84h1.63v-16.51h-1.63zM94.73,83.84h1.57v-16.51h-1.57z" />
		<path id="Layer" style="fill: #a1a1a1" d="M78.13,88.54h19.82v19.82h-19.82zM79.78,106.71h1.56v-16.52h-1.56zM82.72,106.71h1.63v-16.52h-1.63zM85.72,106.71h1.63v-16.52h-1.63zM88.72,106.71h1.63v-16.52h-1.63zM91.73,106.71h1.63v-16.52h-1.63zM94.73,106.71h1.57v-16.52h-1.57z" />
		<path id="Layer" style="fill: #a1a1a1" d="M100.99,88.54h19.82v19.82h-19.82zM102.64,106.71h1.56v-16.52h-1.56zM105.58,106.71h1.63v-16.52h-1.63zM108.59,106.71h1.63v-16.52h-1.63zM111.59,106.71h1.63v-16.52h-1.63zM114.59,106.71h1.63v-16.52h-1.63zM117.6,106.71h1.56v-16.52h-1.56z" />
		<path id="Layer" style="fill: #a1a1a1" d="M100.99,65.68h19.82v19.82h-19.82zM102.64,83.84h1.56v-16.51h-1.56zM105.58,83.84h1.63v-16.51h-1.63zM108.59,83.84h1.63v-16.51h-1.63zM111.59,83.84h1.63v-16.51h-1.63zM114.59,83.84h1.63v-16.51h-1.63zM117.6,83.84h1.56v-16.51h-1.56z" />
		<path id="Layer" style="fill: #a1a1a1" d="M123.86,88.54h19.82v19.82h-19.82zM125.51,106.71h1.56v-16.52h-1.56zM128.45,106.71h1.63v-16.52h-1.63zM131.45,106.71h1.63v-16.52h-1.63zM134.46,106.71h1.63v-16.52h-1.63zM137.46,106.71h1.63v-16.52h-1.63zM140.46,106.71h1.56v-16.52h-1.56z" />
		<path id="Layer" style="fill: #a1a1a1" d="M123.86,65.68h19.82v19.82h-19.82zM125.51,83.84h1.56v-16.51h-1.56zM128.45,83.84h1.63v-16.51h-1.63zM131.45,83.84h1.63v-16.51h-1.63zM134.46,83.84h1.63v-16.51h-1.63zM137.46,83.84h1.63v-16.51h-1.63zM140.46,83.84h1.56v-16.51h-1.56z" />
		<path id="Layer" style="fill: #a1a1a1" d="M123.86,42.81h19.82v19.82h-19.82zM125.51,60.98h1.56v-16.52h-1.56zM128.45,60.98h1.63v-16.52h-1.63zM131.45,60.98h1.63v-16.52h-1.63zM134.46,60.98h1.63v-16.52h-1.63zM137.46,60.98h1.63v-16.52h-1.63zM140.46,60.98h1.56v-16.52h-1.56z" />
		<path id="Layer" style="fill: #a1a1a1" d="M146.72,88.54h19.82v19.82h-19.82zM148.38,106.71h1.56v-16.52h-1.56zM151.32,106.71h1.63v-16.52h-1.63zM154.32,106.71h1.63v-16.52h-1.63zM157.32,106.71h1.63v-16.52h-1.63zM160.33,106.71h1.63v-16.52h-1.63zM163.33,106.71h1.56v-16.52h-1.56z" />
		<path id="Layer" style="fill: #d0d0d0" d="M96.7,140.49c3.02,0 5.47,2.45 5.47,5.47c0,3.02 -2.45,5.47 -5.47,5.47c-3.02,0 -5.47,-2.45 -5.47,-5.47c0,-3.02 2.45,-5.47 5.47,-5.47z" />
		<path id="Layer" style="fill: #3e3e3e" d="M96.7,142.04c0.5,0 0.98,0.09 1.42,0.27c-0.48,0.28 -0.8,0.79 -0.8,1.38c0,0.88 0.72,1.6 1.6,1.6c0.6,0 1.13,-0.34 1.4,-0.83c0.19,0.46 0.3,0.97 0.3,1.5c0,2.16 -1.75,3.91 -3.92,3.91c-2.16,0 -3.92,-1.75 -3.92,-3.91c0,-2.16 1.75,-3.92 3.92,-3.92z" />
		<path id="Layer" style="fill: #3e3e3e" d="M0,129.16h254.33c-5.54,-1.4 -17.52,-3.3 -15.54,-10.56c-10.07,11.65 -34.35,8.17 -40.48,2.43c-6.82,9.9 -46.55,6.14 -49.33,-1.58c-8.56,10.04 -35.07,10.04 -43.62,0c-2.77,7.71 -42.5,11.47 -49.33,1.58c-6.13,5.75 -30.41,9.22 -40.48,-2.43c1.98,7.26 -10.01,9.15 -15.55,10.56z" />
		<path id="Layer" style="fill: #d0d0d0" d="M111.24,179.89c-13.54,-6.43 -20.97,-15.16 -25.11,-24.69c-5.03,1.44 -11.07,2.35 -18.1,2.75c-2.65,0.15 -5.43,0.22 -8.35,0.22c-3.37,0 -6.92,-0.1 -10.64,-0.3c12.42,12.41 27.69,21.96 55.98,22.14c2.09,0 4.16,-0.04 6.22,-0.12z" />
		<path id="Layer" style="fill: #d0d0d0" d="M91.16,163.99c-1.87,-2.54 -3.69,-5.74 -5.03,-8.8c-5.03,1.44 -11.08,2.35 -18.1,2.75c4.83,2.62 11.73,5.05 23.13,6.05z" />
	</g>
</svg>