<svg xmlns="http://www.w3.org/2000/svg" viewBox="0 0 256 348" width="256" height="348">
	<defs>
	</defs>
	<g id="Layer">
		<path id="Layer" style="fill: #bfbfbf" d="M3.69,188.16c0.5,10.26 10.76,5.48 15.34,2.29c4.38,-3.09 5.68,-0.5 6.08,-6.47c0.3,-3.98 0.7,-7.87 0.5,-11.85c-6.67,-0.6 -13.85,1 -19.32,4.98c-2.89,1.99 -8.07,8.57 -2.59,11.06z" />
		<path id="Layer" style="fill: #bfbfbf" d="M208.19,314.27c7.87,4.88 22.31,19.62 10.46,26.8c-11.36,10.36 -17.73,-11.46 -27.69,-14.44c4.28,-5.88 9.66,-11.26 17.23,-12.35z" />
		<path id="Layer" style="fill: #bfbfbf" d="M67.34,330.91c-9.26,1.39 -14.44,9.76 -22.21,14.05c-7.27,4.28 -10.06,-1.39 -10.66,-2.59c-1.1,-0.5 -1,0.5 -2.79,-1.29c-6.77,-10.66 6.97,-18.43 14.14,-23.71c9.96,-1.99 16.24,6.67 21.52,13.55z" />
		<path id="Layer" style="fill: #bfbfbf" d="M251.92,186.87c-0.5,10.26 -10.76,5.48 -15.34,2.29c-4.38,-3.09 -5.68,-0.5 -6.08,-6.47c-0.3,-3.98 -0.7,-7.87 -0.5,-11.85c6.67,-0.6 13.85,1 19.32,4.98c2.79,1.99 8.07,8.57 2.59,11.06z" />
		<path id="Layer" style="fill: #808080" d="M224.72,61.76c35.56,-12.55 7.77,-61.26 -23.21,-39.74c-20.32,-17.43 -48.31,-20.62 -77.7,-20.62c-28.79,2.29 -56.18,7.57 -75.31,24.31c-30.88,-19.92 -59.37,27.89 -23.11,39.94c-10.16,39.45 1.39,79.69 -0.2,119.83c-1.49,36.06 -10.96,84.37 9.06,116.74c17.03,27.69 53.69,37.55 83.87,38.65c38.55,1.39 85.27,-8.07 103.99,-45.42c17.93,-35.56 12.95,-79.89 10.66,-118.24c-2.29,-38.75 1.99,-78.09 -8.07,-115.45z" />
		<path id="Layer" style="fill: #000000" d="M252.91,187.67c-0.4,4.78 -3.09,6.97 -7.17,6.57c-2.99,-0.3 -6.57,-1.99 -9.66,-4.08c-0.5,-0.4 -1,-0.7 -1.49,-0.9v0.5c1.1,16.93 1.49,25.8 1.59,35.96c0.2,28.69 -3.49,51 -13.05,70.13c-3.49,6.87 -7.97,12.95 -13.15,18.03c4.38,2.99 9.06,7.67 11.75,12.15c3.79,6.38 3.39,11.95 -2.39,15.54c-3.29,2.99 -6.47,3.69 -9.76,2.29c-2.49,-1.1 -4.68,-2.99 -7.97,-6.87c-0.2,-0.3 -0.5,-0.5 -0.7,-0.8c-0.1,-0.1 -0.1,-0.2 -0.3,-0.4c-0.1,-0.2 -0.1,-0.2 -0.3,-0.4c-4.18,-4.88 -6.38,-6.97 -8.96,-7.97c-4.18,2.19 -8.57,4.18 -13.25,5.88c-17.53,6.38 -38.25,9.06 -59.77,8.27c-16.64,-0.6 -33.07,-3.69 -47.22,-9.36c-0.7,-0.3 -1.29,-0.5 -1.89,-0.8l-1.59,0.3c-4.48,0.7 -7.47,2.59 -13.55,7.77c-0.1,0.1 -0.1,0.1 -0.2,0.2c-3.79,3.19 -5.58,4.68 -8.07,5.98c-4.68,2.79 -8.17,2.09 -10.66,-0.8c-0.3,-0.4 -0.6,-0.8 -0.9,-1.29c-0.1,-0.2 -0.2,-0.3 -0.3,-0.5h-0.3c-0.8,0 -1.39,-0.3 -2.49,-1.39l-0.2,-0.2c-2.49,-4.08 -2.49,-7.97 -0.3,-11.85c1.69,-2.99 4.58,-5.68 8.77,-8.87c1.2,-0.9 4.98,-3.69 5.88,-4.28c-4.58,-4.18 -8.47,-8.77 -11.65,-13.95c-10.16,-16.44 -13.55,-37.15 -12.65,-65.64c0.2,-7.67 0.7,-14.54 1.69,-27.09c0.9,-11.16 1.29,-16.04 1.49,-20.72c-0.2,0.2 -0.5,0.3 -0.8,0.4c-0.2,0.1 -0.8,0.3 -0.8,0.3c-0.3,0.1 -0.5,0.2 -0.8,0.3c-0.7,0.3 -1.39,0.7 -2.09,1.2c-3.09,2.19 -6.67,3.79 -9.66,4.08c-4.08,0.4 -6.77,-1.79 -7.17,-6.57c-2.59,-1.49 -3.09,-3.98 -1.79,-6.77c0.9,-2.19 2.89,-4.48 4.68,-5.78c5.08,-3.69 11.85,-5.48 18.63,-5.18c-0.2,-8.57 -0.7,-15.64 -1.99,-31.08c-1.79,-20.72 -2.29,-29.88 -2.09,-41.34c0.2,-11.75 1.49,-22.41 3.98,-32.47c-7.87,-2.89 -13.15,-7.57 -15.44,-13.55c-2.29,-5.98 -1.49,-12.95 1.89,-19.03c3.39,-6.08 9.06,-10.76 15.64,-12.75c7.07,-2.19 14.74,-1.1 22.11,3.49c4.78,-4.18 10.26,-7.77 16.44,-10.76c15.34,-7.47 33.87,-11.36 58.87,-13.35l0.1,1v-1c23.41,0 40.64,2.09 55.48,7.57c8.37,3.19 15.84,7.37 22.31,12.85c7.27,-4.88 14.84,-6.28 21.81,-4.38c6.47,1.79 12.05,6.28 15.54,12.25c3.39,6.08 4.38,12.95 2.39,19.03c-2.09,6.57 -7.37,11.65 -15.44,14.74c2.39,9.16 4.08,18.93 5.18,29.48c1.39,13.45 1.69,24.21 1.79,48.71v7.77c0,8.57 0.2,15.34 0.4,21.52c6.08,0.2 11.95,1.99 16.54,5.28c1.79,1.29 3.69,3.69 4.68,5.78c1.29,2.79 0.8,5.28 -1.69,6.87zM203.31,22.01c2.99,2.79 5.88,5.78 8.47,9.16c4.08,-1.29 8.07,-0.8 10.36,3.59c2.29,4.38 0.9,7.47 -1.99,9.96c1.99,5.08 3.79,10.36 5.28,15.74c7.47,-2.79 12.25,-7.47 14.14,-13.35c1.79,-5.58 0.9,-11.85 -2.29,-17.43c-3.19,-5.58 -8.37,-9.76 -14.34,-11.36c-6.28,-1.69 -13.05,-0.5 -19.62,3.69zM24.7,64.45c0.6,-2.29 1.29,-4.58 1.99,-6.77c0.6,-1.79 1.29,-3.59 1.99,-5.28c-5.08,-2.79 -8.67,-6.47 -5.58,-12.35c2.99,-5.48 8.27,-4.98 13.45,-2.29c2.99,-4.38 6.47,-8.37 10.36,-11.85c-6.77,-3.98 -13.65,-4.88 -20.02,-2.99c-6.18,1.79 -11.36,6.18 -14.54,11.75c-3.19,5.58 -3.88,11.95 -1.79,17.33c2.09,5.38 6.87,9.66 14.14,12.45zM24.21,183.98c0.1,-0.7 0.1,-1.29 0.2,-2.69c0.1,-0.3 0.1,-0.5 0.1,-0.8c0.1,-2.39 0,-4.88 0,-7.37c-6.38,-0.4 -12.75,1.29 -17.53,4.78c-1.49,1.1 -3.29,3.19 -4.08,4.98c-0.9,1.99 -0.6,3.39 1,4.28c0.1,-0.1 0.1,-0.1 0.2,-0.1c1.79,-0.6 2.39,-0.9 2.99,-1.69l1.59,1.2c-0.8,1.2 -1.69,1.69 -3.79,2.39c0.3,3.59 1.99,4.88 4.98,4.58c2.59,-0.2 5.98,-1.69 8.77,-3.69c0.8,-0.6 1.59,-1.1 2.39,-1.39c0.3,-0.2 0.6,-0.3 0.9,-0.4c0,-0.1 0.6,-0.3 0.7,-0.3c1.1,-0.5 1.29,-0.9 1.59,-3.79zM65.54,330.21c-0.1,-0.1 -0.2,-0.2 -0.2,-0.3c-6.97,-3.29 -13.25,-7.27 -18.63,-11.85c-0.2,0.1 -0.4,0.2 -0.6,0.2c-1,0.8 -4.68,3.39 -5.78,4.18c-8.77,6.57 -11.85,11.85 -7.97,18.03c0.4,0.4 0.7,0.6 0.9,0.7c0.1,0 0.4,0 0.4,0c0.4,-1.79 1.2,-3.39 2.99,-5.98c0,-0.1 0,-0.1 0.1,-0.2c1,-1.59 1.49,-2.39 1.89,-3.29l1.79,0.8c-0.5,1.1 -1,1.99 -2.09,3.59c0,0.1 0,0.1 -0.1,0.2c-1.79,2.79 -2.49,4.08 -2.69,5.88c0,0.1 0,0.1 0,0.1c0.1,0.1 0.2,0.3 0.3,0.4c0.2,0.3 0.4,0.7 0.7,1c1.79,2.19 4.38,2.69 8.17,0.4c2.29,-1.29 4.08,-2.59 7.77,-5.78c0.1,-0.1 0.1,-0.1 0.2,-0.2c5.58,-4.78 8.77,-6.87 12.85,-7.87zM208.49,315.27c-4.48,4.18 -9.46,7.77 -15.04,10.96c2.39,1.29 4.58,3.59 8.27,7.87c0.1,0.2 0.1,0.2 0.3,0.4c0.1,0.2 0.2,0.3 0.3,0.4c0.2,0.3 0.4,0.6 0.6,0.8c3.19,3.59 5.18,5.48 7.27,6.38c2.39,1.1 4.68,0.7 7.27,-1.49c-0.3,-0.7 -0.6,-1.49 -1.1,-2.79c-0.1,-0.1 -0.1,-0.1 -0.1,-0.2c-1.39,-3.49 -2.09,-4.98 -3.59,-6.38l1.39,-1.39c1.69,1.79 2.59,3.39 3.98,7.17c0.1,0.1 0.1,0.1 0.1,0.2c0.4,1 0.6,1.69 0.9,2.29c3.88,-2.89 3.98,-7.07 0.9,-12.25c-2.59,-4.28 -7.27,-8.87 -11.46,-11.95zM234.19,225.52c-0.1,-10.16 -0.5,-18.93 -1.59,-35.86c-0.5,-7.87 -0.6,-9.26 -0.8,-12.55c-0.5,-8.47 -0.7,-16.93 -0.8,-28.99v-7.77c-0.1,-24.4 -0.4,-35.16 -1.79,-48.51c-1.79,-17.53 -5.18,-32.77 -10.96,-46.92c-8.96,-17.43 -22.01,-28.79 -39.55,-35.26c-14.64,-5.38 -31.58,-7.47 -54.79,-7.47c-24.8,1.99 -43.03,5.78 -58.07,13.15c-17.93,8.87 -30.38,22.51 -37.15,42.73c-4.18,12.45 -6.18,25.6 -6.47,40.54c-0.2,11.36 0.3,20.42 2.09,41.14c1.29,15.64 1.79,22.61 1.99,31.38c0.1,4.98 0.1,9.66 -0.1,14.24c-0.3,6.38 -0.6,10.46 -1.69,24.6c-1,12.55 -1.39,19.42 -1.69,27.09c-0.9,28.09 2.39,48.51 12.35,64.55c14.84,24.11 46.52,36.86 83.08,38.15c21.22,0.8 41.74,-1.79 59.07,-8.07c20.32,-7.37 35.46,-19.52 44.03,-36.76c9.46,-18.83 13.05,-40.84 12.85,-69.43zM252.71,181.79c-0.8,-1.79 -2.59,-3.88 -4.08,-4.98c-4.18,-3.09 -9.66,-4.78 -15.24,-4.88c0.1,1.79 0.2,3.59 0.3,5.38c0.2,2.89 0.2,4.28 0.6,9.76c0.1,0 0.2,0.1 0.3,0.1c0.8,0.4 1.59,0.8 2.39,1.39c2.79,1.89 6.18,3.49 8.77,3.69c2.89,0.3 4.58,-1 4.98,-4.58c-1.99,-0.7 -2.89,-1.2 -3.79,-2.39l1.59,-1.2c0.6,0.7 1.2,1.1 2.99,1.69c0.1,0 0.2,0.1 0.3,0.1c1.69,-0.9 1.89,-2.39 0.9,-4.08z" />
		<g id="Layer">
			<path id="Layer" style="fill: #ffffff" d="M138.92,104.12c0.1,5.08 1.1,10.66 0.2,16.04c-1.39,2.59 -3.98,2.89 -6.28,3.88c-3.19,-0.5 -5.88,-2.59 -7.17,-5.58c-0.8,-6.08 0.2,-11.85 0.5,-17.93c0,-0.2 3.79,0.1 7.17,1.1c2.89,0.9 5.58,2.39 5.58,2.49z" />
			<path id="Layer" style="fill: #ffffff" d="M110.73,104.52c-2.79,10.56 3.69,27.79 14.34,13.65c-0.8,-5.98 0.1,-11.75 0.4,-17.63c0.1,-0.5 -14.64,3.29 -14.74,3.98z" />
			<path id="Layer" style="fill: #000000" d="M140.41,114.48c0,2.09 -0.1,3.98 -0.4,5.78v0.2l-0.1,0.1c-1,1.89 -2.19,2.69 -5.08,3.69c-0.1,0.1 -0.1,0.1 -0.2,0.1c-0.7,0.3 -1.1,0.4 -1.49,0.6l-0.3,0.1h-0.3c-3.19,-0.5 -5.98,-2.49 -7.47,-5.38c-5.28,6.38 -10.46,6.28 -13.65,0.7c-2.79,-4.88 -3.29,-12.85 -1.1,-18.13l0.2,-0.5l0.5,-0.1l14.14,-3.59v-0.1h0.1l1.29,-0.3v0.7l12.55,3.88l0.7,0.2v0.7c0,1.49 0.1,2.69 0.3,5.68c0.2,2.79 0.3,4.18 0.3,5.68zM124.57,100.24l-12.55,3.19c-1.79,4.68 -1.29,11.75 1.1,15.94c2.49,4.48 6.18,4.48 10.86,-1.49c-0.3,-2.79 -0.3,-5.58 -0.1,-9.26c0.1,-1 0.2,-1.69 0.3,-3.49c0.2,-2.29 0.3,-3.59 0.4,-4.88zM138.52,114.68c0,-1.59 -0.1,-2.99 -0.3,-5.68c-0.2,-2.59 -0.3,-3.79 -0.3,-5.08l-10.86,-3.29c0,1.29 -0.1,2.69 -0.3,4.98c-0.2,1.79 -0.2,2.49 -0.3,3.49c-0.2,3.69 -0.2,6.47 0.1,9.16c1.1,2.49 3.39,4.28 6.08,4.78c0.3,-0.1 0.7,-0.3 1.29,-0.5c0.1,-0.1 0.1,-0.1 0.2,-0.1c2.39,-0.8 3.29,-1.39 3.98,-2.59c0.3,-1.59 0.4,-3.29 0.4,-5.18z" />
		</g>
		<g id="Layer">
			<path id="Layer" style="fill: #ffffff" d="M50.77,60.72c9.16,35.66 66.24,26.5 64.05,-9.26c-2.59,-42.83 -72.82,-34.56 -64.05,9.26z" />
			<path id="Layer" style="fill: #000000" d="M49.87,60.72c-2.09,-10.56 0.2,-19.72 6.18,-26.7c5.38,-6.28 13.55,-10.26 22.41,-11.46c8.87,-1.1 17.83,0.7 24.6,5.28c7.57,5.08 12.15,13.15 12.75,23.51c2.19,37.15 -56.58,46.02 -65.94,9.36zM113.92,51.66c-0.6,-9.86 -4.88,-17.33 -11.95,-22.11c-6.38,-4.38 -14.84,-6.08 -23.31,-4.98c-8.47,1.1 -16.14,4.98 -21.22,10.86c-5.58,6.47 -7.77,15.04 -5.78,25.1c8.87,34.27 64.35,25.9 62.26,-8.87z" />
			<path id="Layer" style="fill: #000000" d="M76.17,54.85c0,-5.78 -4.32,-10.46 -9.66,-10.46c-5.34,0 -9.66,4.68 -9.66,10.46c0,5.78 4.32,10.46 9.66,10.46c5.34,0 9.66,-4.68 9.66,-10.46z" />
			<path id="Layer" style="fill: #ffffff" d="M73.18,57.24c0,-1.49 -1.02,-2.69 -2.29,-2.69c-1.27,0 -2.29,1.2 -2.29,2.69c0,1.49 1.02,2.69 2.29,2.69c1.27,0 2.29,-1.2 2.29,-2.69z" />
		</g>
		<g id="Layer">
			<path id="Layer" style="fill: #ffffff" d="M130.81,54.06c7.07,40.94 74.01,30.08 64.35,-11.16c-8.67,-37.06 -66.74,-26.8 -64.35,11.16z" />
			<path id="Layer" style="fill: #000000" d="M190.88,68.4c-5.08,6.18 -12.85,10.36 -21.52,11.85c-19.03,3.19 -36.26,-6.67 -39.55,-26v-0.1c-2.39,-39.15 57.38,-49.61 66.24,-11.46c2.39,9.96 0.4,18.83 -5.18,25.7zM194.27,43.1c-8.37,-35.86 -64.75,-26 -62.56,10.86c3.19,18.13 19.32,27.39 37.35,24.4c8.27,-1.39 15.54,-5.38 20.32,-11.16c5.28,-6.38 7.07,-14.64 4.88,-24.11z" />
			<path id="Layer" style="fill: #000000" d="M156.71,52.26c0,-5.78 -4.23,-10.46 -9.46,-10.46c-5.23,0 -9.46,4.68 -9.46,10.46c0,5.78 4.23,10.46 9.46,10.46c5.23,0 9.46,-4.68 9.46,-10.46z" />
			<path id="Layer" style="fill: #ffffff" d="M153.82,54.65c0,-1.49 -0.98,-2.69 -2.19,-2.69c-1.21,0 -2.19,1.2 -2.19,2.69c0,1.49 0.98,2.69 2.19,2.69c1.21,0 2.19,-1.2 2.19,-2.69z" />
		</g>
		<g id="Layer">
			<path id="Layer" style="fill: #bfbfbf" d="M112.78,83c-7.87,0.7 -14.24,9.96 -10.16,17.33c5.38,9.76 17.43,-0.9 24.9,0.1c8.67,0.2 15.74,9.16 22.61,1.59c7.67,-8.37 -3.29,-16.54 -11.95,-20.12z" />
			<path id="Layer" style="fill: #231f20" d="M150.94,102.82c-2.29,2.49 -4.78,3.49 -7.67,3.29c-2.09,-0.2 -3.39,-0.7 -7.57,-2.39c-3.79,-1.49 -5.78,-2.19 -8.17,-2.19h-0.1c-1.99,-0.3 -3.98,0.2 -8.96,1.89c-0.5,0.2 -0.9,0.3 -1.2,0.4c-3.69,1.29 -6.08,1.79 -8.37,1.69c-3.09,-0.2 -5.38,-1.69 -7.07,-4.68c-4.28,-7.77 2.09,-18.03 10.96,-18.83l25.5,-1h0.2l0.2,0.1c5.08,2.09 9.76,5.18 12.45,8.57c3.49,4.28 3.69,8.87 -0.2,13.15zM149.54,90.87c-2.49,-3.09 -6.77,-5.98 -11.55,-7.97l-25.2,1c-7.47,0.7 -12.95,9.46 -9.36,15.94c2.39,4.38 5.88,4.58 13.15,2.09c0.3,-0.1 0.7,-0.2 1.2,-0.4c5.28,-1.79 7.37,-2.29 9.86,-1.99c2.59,0.1 4.78,0.7 8.77,2.39c3.98,1.59 5.18,2.09 6.97,2.19c2.29,0.1 4.18,-0.6 6.08,-2.69c3.19,-3.39 3.09,-6.97 0.1,-10.56z" />
			<g id="Layer">
				<path id="Layer" style="fill: #000000" d="M140.18,78.72c-3.09,-11.36 -28.99,-9.66 -28.39,3.88c1.29,10.06 31.38,7.37 28.39,-3.88z" />
			</g>
		</g>
	</g>
</svg>