<svg xmlns="http://www.w3.org/2000/svg" viewBox="0 0 443 271" width="443" height="271">
	<defs>
		<clipPath clipPathUnits="userSpaceOnUse" id="cp1">
			<path d="M160.72,62.59l-42.13,24.32c-1.58,0.91 -2.55,2.59 -2.55,4.41v48.67c0,1.82 0.97,3.5 2.55,4.41l42.13,24.34c1.57,0.91 3.52,0.91 5.09,0l42.13,-24.34c1.57,-0.91 2.54,-2.59 2.54,-4.41v-48.67c0,-1.82 -0.97,-3.5 -2.55,-4.41l-42.12,-24.32c-0.79,-0.45 -1.67,-0.68 -2.55,-0.68c-0.88,0 -1.76,0.23 -2.55,0.68" />
		</clipPath>
		<linearGradient id="grd1" gradientUnits="userSpaceOnUse"  x1="193.664" y1="53.59" x2="132.798" y2="177.756">
			<stop offset="0" stop-color="#e9e5e5"  />
			<stop offset="1" stop-color="#000000"  />
		</linearGradient>
		<clipPath clipPathUnits="userSpaceOnUse" id="cp2">
			<path d="M117.09,143.07c0.4,0.52 0.91,0.98 1.5,1.32l36.14,20.88l6.02,3.46c0.9,0.52 1.93,0.74 2.93,0.67c0.34,-0.03 0.67,-0.09 1,-0.18l44.43,-81.36c-0.34,-0.37 -0.74,-0.68 -1.18,-0.94l-27.59,-15.93l-14.58,-8.39c-0.41,-0.24 -0.86,-0.41 -1.32,-0.53z" />
		</clipPath>
		<linearGradient id="grd2" gradientUnits="userSpaceOnUse"  x1="108.179" y1="157.365" x2="219.043" y2="75.449">
			<stop offset="0" stop-color="#e9e5e5"  />
			<stop offset="1" stop-color="#000000"  />
		</linearGradient>
		<clipPath clipPathUnits="userSpaceOnUse" id="cp3">
			<path d="M162.76,61.94c-0.71,0.07 -1.4,0.29 -2.03,0.65l-42.01,24.25l45.3,82.51c0.63,-0.09 1.25,-0.3 1.81,-0.62l42.13,-24.34c1.3,-0.75 2.19,-2.03 2.46,-3.48l-46.18,-78.89c-0.34,-0.07 -0.68,-0.1 -1.03,-0.1c-0.14,0 -0.28,0.01 -0.42,0.02" />
		</clipPath>
		<linearGradient id="grd3" gradientUnits="userSpaceOnUse"  x1="118.745" y1="115.636" x2="210.414" y2="115.636">
			<stop offset="0" stop-color="#e9e5e5"  />
			<stop offset="1" stop-color="#000000"  />
		</linearGradient>
	</defs>
	<path id="Layer" style="fill: #808080" d="M218.65,270.93c-1.46,0 -2.91,-0.38 -4.19,-1.12l-13.34,-7.9c-1.99,-1.11 -1.02,-1.51 -0.36,-1.74c2.66,-0.93 3.19,-1.14 6.03,-2.75c0.3,-0.17 0.69,-0.11 0.99,0.07l10.25,6.08c0.37,0.2 0.9,0.2 1.24,0l39.95,-23.06c0.37,-0.21 0.61,-0.64 0.61,-1.08v-46.1c0,-0.46 -0.24,-0.87 -0.62,-1.1l-39.93,-23.04c-0.37,-0.22 -0.86,-0.22 -1.23,0l-39.93,23.04c-0.39,0.22 -0.63,0.65 -0.63,1.09v46.1c0,0.44 0.24,0.86 0.62,1.07l10.94,6.32c5.94,2.97 9.57,-0.53 9.57,-4.05v-45.5c0,-0.65 0.51,-1.15 1.16,-1.15h5.06c0.63,0 1.15,0.5 1.15,1.15v45.52c0,7.92 -4.32,12.47 -11.83,12.47c-2.31,0 -4.13,0 -9.21,-2.5l-10.48,-6.04c-2.59,-1.5 -4.19,-4.3 -4.19,-7.29v-46.1c0,-3 1.6,-5.8 4.19,-7.28l39.99,-23.07c2.53,-1.43 5.89,-1.43 8.4,0l39.94,23.08c2.58,1.49 4.19,4.28 4.19,7.28v46.1c0,2.99 -1.61,5.78 -4.19,7.28l-39.94,23.07c-1.28,0.74 -2.73,1.12 -4.21,1.12" />
	<path id="Layer" style="fill: #808080" d="M230.99,239.16c-17.48,0 -21.15,-8.02 -21.15,-14.75c0,-0.64 0.52,-1.15 1.16,-1.15h5.16c0.57,0 1.05,0.41 1.14,0.98c0.78,5.26 3.1,7.91 13.67,7.91c8.42,0 12,-1.9 12,-6.37c0,-2.57 -1.02,-4.48 -14.1,-5.76c-10.94,-1.08 -17.7,-3.49 -17.7,-12.24c0,-8.06 6.8,-12.86 18.19,-12.86c12.79,0 19.13,4.44 19.93,13.98c0.03,0.33 -0.09,0.65 -0.31,0.89c-0.22,0.23 -0.53,0.37 -0.85,0.37h-5.19c-0.54,0 -1.01,-0.38 -1.12,-0.9c-1.25,-5.53 -4.27,-7.3 -12.48,-7.3c-9.19,0 -10.26,3.2 -10.26,5.6c0,2.91 1.26,3.76 13.66,5.4c12.28,1.63 18.11,3.93 18.11,12.56c0,8.7 -7.26,13.69 -19.92,13.69M279.59,190.32h1.34c1.1,0 1.31,-0.77 1.31,-1.22c0,-1.18 -0.81,-1.18 -1.26,-1.18h-1.38zM277.96,186.54h2.97c1.02,0 3.02,0 3.02,2.28c0,1.59 -1.02,1.92 -1.63,2.12c1.19,0.08 1.27,0.86 1.43,1.96c0.08,0.69 0.21,1.88 0.45,2.28h-1.83c-0.05,-0.4 -0.33,-2.6 -0.33,-2.72c-0.12,-0.49 -0.29,-0.73 -0.9,-0.73h-1.51v3.46h-1.67zM274.39,190.84c0,3.58 2.89,6.48 6.44,6.48c3.58,0 6.47,-2.96 6.47,-6.48c0,-3.59 -2.93,-6.44 -6.48,-6.44c-3.5,0 -6.44,2.81 -6.44,6.43M288.54,190.86c0,4.24 -3.47,7.7 -7.7,7.7c-4.2,0 -7.7,-3.42 -7.7,-7.7c0,-4.36 3.58,-7.7 7.7,-7.7c4.15,0 7.69,3.35 7.69,7.7" />
	<path id="Layer" style="fill: #000000" d="M94.85,156.18c0,0.91 -0.49,1.76 -1.27,2.21c-0.79,0.47 -1.77,0.47 -2.56,0l-25.16,-14.41c-1.58,-0.94 -2.56,-2.62 -2.56,-4.44v-30.66c0,-1.83 -0.97,-3.52 -2.56,-4.43l-10.71,-6.17c-0.77,-0.46 -1.67,-0.69 -2.54,-0.69c-0.89,0 -1.76,0.23 -2.56,0.69l-10.72,6.17c-1.59,0.91 -2.56,2.6 -2.56,4.43v30.67c0,1.82 -0.97,3.49 -2.56,4.44l-25.18,14.42c-0.78,0.48 -1.76,0.48 -2.54,0c-0.8,-0.45 -1.27,-1.3 -1.27,-2.21l-0.09,-65.64c0,-1.84 0.98,-3.53 2.56,-4.45l42.35,-24.37c0.73,-0.42 1.53,-0.64 2.34,-0.67h0.44c0.81,0.03 1.61,0.25 2.33,0.67l42.36,24.37c1.59,0.92 2.56,2.61 2.56,4.45zM294.8,107.93c0,-0.46 -0.24,-0.88 -0.64,-1.11l-14.55,-8.4c-0.4,-0.23 -0.89,-0.23 -1.29,0l-14.54,8.4c-0.39,0.23 -0.63,0.65 -0.63,1.11v16.8c0,0.46 0.24,0.88 0.64,1.11l14.55,8.39c0.39,0.23 0.88,0.23 1.28,0l14.55,-8.39c0.4,-0.23 0.64,-0.65 0.64,-1.11zM323.94,14.39c1.62,0.91 2.63,2.61 2.63,4.47v121.92c0,1.83 -0.98,3.51 -2.56,4.43l-42.37,24.48c-1.59,0.91 -3.54,0.91 -5.12,0l-42.37,-24.47c-1.58,-0.92 -2.56,-2.6 -2.56,-4.43v-48.92c0,-1.82 0.98,-3.51 2.56,-4.42l42.37,-24.45c1.59,-0.91 3.53,-0.91 5.11,0l10.61,6.11c0.56,0.32 1.24,0.32 1.79,0c0.55,-0.32 0.89,-0.91 0.89,-1.55v-65c0,-0.91 0.48,-1.75 1.26,-2.21c0.78,-0.46 1.75,-0.47 2.54,-0.03zM414.41,122.25c-0.79,0.46 -1.77,0.46 -2.56,0.01c-0.79,-0.46 -1.28,-1.31 -1.28,-2.22v-12.06c0,-0.91 -0.49,-1.76 -1.28,-2.21l-13.27,-7.65c-0.79,-0.46 -1.76,-0.46 -2.55,0l-13.26,7.65c-0.8,0.46 -1.28,1.3 -1.28,2.22v15.34c0,0.91 0.49,1.76 1.29,2.21l42.62,24.46c0.8,0.45 1.29,1.31 1.29,2.23c0,0.92 -0.51,1.77 -1.31,2.22l-25.46,14.15c-1.57,0.87 -3.47,0.86 -5.02,-0.03l-42.09,-23.99c-1.59,-0.91 -2.58,-2.61 -2.58,-4.45v-48.9c0,-1.83 0.97,-3.51 2.56,-4.43l42.36,-24.45c1.59,-0.92 3.54,-0.92 5.13,0l42.1,24.44c1.58,0.92 2.55,2.6 2.55,4.42v11.86c0,1.82 -0.97,3.51 -2.54,4.42z" />
	<path id="Layer" style="fill: #808080" d="M394.54,105.2c0.3,-0.18 0.68,-0.18 0.98,0l8.13,4.69c0.3,0.18 0.49,0.5 0.49,0.85v9.39c0,0.35 -0.19,0.67 -0.49,0.85l-8.13,4.69c-0.3,0.18 -0.68,0.18 -0.98,0l-8.12,-4.69c-0.31,-0.18 -0.5,-0.5 -0.5,-0.85v-9.39c0,-0.35 0.18,-0.67 0.49,-0.85z" />
	<g id="Clip-Path" clip-path="url(#cp1)">
		<g id="Layer">
			<path id="Layer" style="fill: url(#grd1)" d="M253.06,82.78l-118.72,-58.19l-60.87,124.17l118.71,58.19z" />
		</g>
	</g>
	<g id="Clip-Path" clip-path="url(#cp2)">
		<g id="Layer">
			<path id="Layer" style="fill: url(#grd2)" d="M65.76,99.99l83.83,113.45l110.86,-81.91l-83.83,-113.45z" />
		</g>
	</g>
	<g id="Clip-Path" clip-path="url(#cp3)">
		<g id="Layer">
			<path id="Layer" style="fill: url(#grd3)" d="M118.71,61.92v107.43h91.68v-107.43z" />
		</g>
	</g>
</svg>